<svg width="55px" height="25px" viewBox="0 0 55 25" version="1.1" xmlns="http://www.w3.org/2000/svg" xmlns:xlink="http://www.w3.org/1999/xlink">
    <g id="Page-1" stroke="none" stroke-width="1" fill="none" fill-rule="evenodd">
        <g id="springload-sprout" fill="#57BD84" fill-rule="nonzero">
            <path d="M33.5455456,0.5255242 C27.8841188,0.516306891 23.2893657,5.07488539 23.2893657,10.7019839 L23.2893657,11.0046419 L23.2847978,11.0046419 L23.2847978,12.9844373 C23.2847978,15.8543222 20.669191,19.0635967 17.1683806,19.0635967 C15.0271431,19.0635967 13.1428154,17.9626097 12.0494264,16.3026686 C15.0297731,14.9730374 17.0893421,12.0009367 17.0893421,8.52477295 C17.0893421,3.80344701 13.2952171,0 8.54460183,0 C3.79384806,0 0,3.80344701 0,8.52477295 C0,12.399207 2.55622417,15.6505784 6.09731513,16.6944731 C7.65995198,21.286344 12.0272791,24.6052632 17.1683806,24.6052632 C23.3967806,24.6052632 28.8608188,19.9861531 28.8608188,13.2469243 L28.8608188,12.2445763 C32.1477684,14.2349648 34.2130126,14.6798719 37.0954955,14.6798719 C46.3540738,14.6798719 52.6950103,6.74803336 55,0.561155291 L33.5455456,0.5255242 Z M8.30954024,5.06578947 C10.1260898,5.06578947 11.5789474,6.54365116 11.5789474,8.32230258 C11.5789474,10.1010857 10.1260898,11.5789474 8.30954024,11.5789474 C6.46692497,11.5789474 5.06578947,10.1010857 5.06578947,8.32230258 C5.06578947,6.54365116 6.46692497,5.06578947 8.30954024,5.06578947 Z" id="path-1"></path>
        </g>
    </g>
</svg>